# xmcd
#
# Track frame offsets:
#	150
#	15788
#	30779
#	44729
#	61279
#	78921
#	95923
#	111556
#	127400
#	141884
#	157191
#	171916
#	189200
#
# Disc length: 2764 seconds
#
# Revision: 1
# Processed by: cddbd v1.5.2PL0 Copyright (c) Steve Scherf et al.
# Submitted via: audiograbber 1.83.01
#
DISCID=b10aca0d
DTITLE=Various Artist - CDX Volume 563 (February 4, 2013)
DYEAR=2012
DGENRE=Country
TTITLE0=Jake Owen - Anywhere With You [Single Edit]
TTITLE1=Lady Antebellum - Downtown
TTITLE2=Kristen Kelly - He Loves To Make Me Cry [Radio Edit]
TTITLE3=Tyler Farr - Redneck Crazy
TTITLE4=Jaida Dreyer - Half Broke Horses
TTITLE5=Lonestar - Maybe Someday 
TTITLE6=Tyler Barham - 17 and Young
TTITLE7=Jessta James - Back In The Day
TTITLE8=Julie Ingram - Door Bell Party
TTITLE9=Hannah Bethel - No Where Left To Roam
TTITLE10=Jesse Taylor - Out Here In The Country
TTITLE11=Mickie James - Somebody's Gonna Pay
TTITLE12=Zach Dubois - Southern Belle
EXTD=
EXTT0=
EXTT1=
EXTT2=
EXTT3=
EXTT4=
EXTT5=
EXTT6=
EXTT7=
EXTT8=
EXTT9=
EXTT10=
EXTT11=
EXTT12=
PLAYORDER=
